<?xml version="1.0" standalone="no"?>
<!DOCTYPE svg PUBLIC "-//W3C//DTD SVG 20010904//EN"
 "http://www.w3.org/TR/2001/REC-SVG-20010904/DTD/svg10.dtd">
<svg version="1.0" xmlns="http://www.w3.org/2000/svg"
 width="700.000000pt" height="700.000000pt" viewBox="0 0 700.000000 700.000000"
 preserveAspectRatio="xMidYMid meet">
<metadata>
Created by potrace 1.14, written by Peter Selinger 2001-2017
</metadata>
<g transform="translate(0.000000,700.000000) scale(0.100000,-0.100000)"
fill="#000000" stroke="none">
<path d="M2949 6736 c-2 -2 -42 -7 -88 -11 -538 -44 -1136 -279 -1596 -629
-120 -91 -120 -91 -261 -231 -145 -144 -259 -283 -369 -449 -304 -462 -534
-1083 -581 -1571 -3 -33 -7 -65 -9 -72 -12 -39 -20 -222 -19 -468 1 -312 18
-468 74 -680 72 -273 220 -624 367 -873 24 -41 43 -75 43 -77 0 -10 134 -205
213 -310 164 -218 265 -334 461 -530 192 -191 395 -352 618 -488 139 -85 345
-175 531 -231 154 -47 181 -45 47 3 -182 65 -290 119 -525 266 -318 199 -605
440 -806 675 -35 41 -67 77 -70 80 -3 3 -39 48 -80 100 -323 411 -567 933
-634 1360 -15 95 -19 542 -5 575 8 19 9 19 9 -2 1 -32 57 -270 97 -412 128
-455 312 -838 584 -1216 105 -146 214 -264 314 -341 l61 -47 -76 79 c-153 159
-245 274 -371 465 -149 225 -194 316 -311 630 -151 407 -198 591 -224 890 -10
107 -10 411 -1 509 50 524 219 1023 467 1380 216 312 462 567 729 758 528 379
1202 569 1837 518 332 -26 711 -131 965 -267 269 -145 570 -402 790 -674 224
-276 393 -653 457 -1015 19 -113 26 -444 10 -568 -50 -402 -208 -767 -479
-1103 -291 -362 -600 -546 -1046 -624 -151 -26 -202 -30 -367 -29 -126 1 -182
6 -264 23 -228 50 -443 150 -621 289 -75 59 -243 233 -287 297 -129 190 -191
401 -200 675 -8 260 23 424 118 614 154 310 403 460 756 458 339 -3 576 -198
561 -462 -10 -176 -110 -276 -331 -332 -103 -26 -129 -39 -162 -83 -38 -50
-76 -165 -78 -238 -2 -131 91 -250 274 -351 167 -92 364 -120 581 -81 367 64
636 302 774 687 169 467 194 902 71 1207 -14 34 -23 61 -20 61 2 0 38 -35 79
-77 l75 -78 -22 60 c-80 218 -162 337 -392 570 -71 72 -151 148 -179 170 -27
22 -56 46 -64 53 -47 44 -284 192 -387 242 -323 157 -703 229 -1032 196 -203
-20 -491 -107 -714 -216 -989 -483 -1562 -1465 -1476 -2532 40 -505 262 -1087
558 -1468 140 -179 426 -472 582 -596 428 -338 905 -509 1595 -571 109 -10
428 -10 547 -1 265 21 647 107 828 188 11 4 40 17 65 27 90 36 323 155 418
214 237 148 412 288 617 493 201 201 325 352 459 556 291 444 451 890 511
1425 13 115 14 643 2 705 -3 14 -8 56 -12 94 -4 38 -9 79 -10 90 -63 384 -134
660 -232 896 -94 229 -263 524 -387 675 -86 106 -239 257 -247 244 -11 -18 16
-91 80 -222 110 -223 207 -619 237 -967 11 -137 4 -522 -11 -538 -1 -1 -36 3
-79 9 l-76 11 -115 232 c-258 520 -408 741 -709 1041 -332 331 -675 577 -986
707 -252 105 -488 166 -830 214 -103 15 -609 31 -621 20z"/>
<path d="M2505 70 c11 -5 27 -9 35 -9 9 0 8 4 -5 9 -11 5 -27 9 -35 9 -9 0 -8
-4 5 -9z"/>
</g>
</svg>
